<svg xmlns="http://www.w3.org/2000/svg" viewBox="0 0 300 280" width="300" height="280">
  <rect width="300" height="280" fill="#001a1a"/>
  
        <rect x="50" y="80" width="200" height="50" rx="5" fill="#1a3a3a"/>
        <rect x="60" y="130" width="180" height="120" rx="5" fill="#0d3333"/>
        <rect x="70" y="140" width="70" height="100" rx="4" fill="#1a4a4a"/>
        <rect x="160" y="140" width="60" height="100" rx="4" fill="#1a4a4a"/>
        <rect x="60" y="130" width="180" height="20" rx="3" fill="#00695c"/>
        <text x="150" y="147" text-anchor="middle" font-size="11" fill="#fff" font-family="sans-serif">RECEPTION</text>
        <circle cx="90" cy="160" r="18" fill="#f0c8a0"/>
        <rect x="72" y="178" width="36" height="65" rx="5" fill="#37474f"/>
        <circle cx="210" cy="155" r="18" fill="#f0c8a0"/>
        <rect x="192" y="173" width="36" height="70" rx="5" fill="#00695c"/>
        <rect x="115" y="150" width="50" height="30" rx="4" fill="#fff" opacity="0.9"/>
        <rect x="120" y="157" width="40" height="5" rx="2" fill="#333"/>
        <rect x="120" y="166" width="30" height="5" rx="2" fill="#333"/>
        <text x="150" y="258" text-anchor="middle" font-size="12" fill="#4db6ac" font-family="sans-serif">регистрация в отеле</text>
        
</svg>