<svg xmlns="http://www.w3.org/2000/svg" viewBox="0 0 300 280" width="300" height="280">
  <rect width="300" height="280" fill="#1a1500"/>
  
        <rect x="50" y="160" width="200" height="80" rx="5" fill="#3a2a10"/>
        <rect x="65" y="110" width="25" height="60" fill="#8d6e63"/>
        <rect x="105" y="90" width="25" height="80" fill="#8d6e63"/>
        <rect x="150" y="100" width="25" height="70" fill="#8d6e63"/>
        <rect x="195" y="105" width="25" height="65" fill="#8d6e63"/>
        <rect x="55" y="168" width="190" height="8" fill="#a1887f"/>
        <circle cx="90" cy="150" r="18" fill="#f0c8a0"/>
        <rect x="74" y="168" width="36" height="70" rx="4" fill="#c62828"/>
        <rect x="82" y="140" width="30" height="20" rx="4" fill="#333"/>
        <rect x="87" y="142" width="10" height="10" rx="5" fill="#b3e5fc"/>
        <circle cx="200" cy="150" r="18" fill="#f0c8a0"/>
        <rect x="184" y="168" width="36" height="70" rx="4" fill="#1565c0"/>
        <rect x="192" y="140" width="30" height="20" rx="4" fill="#333"/>
        <rect x="197" y="142" width="10" height="10" rx="5" fill="#b3e5fc"/>
        <text x="150" y="255" text-anchor="middle" font-size="12" fill="#ffa726" font-family="sans-serif">фото руин</text>
        
</svg>