<svg version="1.2" xmlns="http://www.w3.org/2000/svg" viewBox="0 0 512 512" width="512" height="512">
	<style>
		.s0 { fill: #000000 } 
		.s1 { fill: #ff5d5d }
		.s2 { fill: #6f6db0 }
		.s3 { fill: #1c1e30 }
		.s4 { fill: #ffffff }
		.s5 { fill: #fdd828 }
	</style>
	<g id="Background">
		<path id="Path 0" class="s0" d="m84.5 2.59c-2.75 1.36-6.75 4.15-8.88 6.19-2.13 2.05-5.17 6.53-6.75 9.97l-2.87 6.25c-0.02 345.61 0.32 416.33 1.01 420 0.57 3.02 2.37 8.31 4.01 11.75 1.64 3.45 5.33 8.65 8.23 11.59 2.89 2.94 7.95 6.71 11.25 8.38 3.3 1.66 8.36 3.54 11.25 4.15 2.89 0.62 10.88 1.13 17.75 1.13h12.5c0.5 23.7 0.54 23.92 3.5 26.96 2.15 2.21 3.92 3.08 6.25 3.06 2.29-0.01 7.97-2.82 19.25-9.52l16-9.5c27.38 16.07 33.44 19.05 35.5 19.01 1.65-0.03 3.96-0.83 5.13-1.78 1.18-0.95 2.64-2.74 3.25-3.98 0.62-1.25 1.12-7.16 1.12-13.25v-11c181.17 0 198.47-0.23 200.75-1.38 1.51-0.76 3.31-2.56 4-4 0.92-1.92 1.25-10.88 1.25-33.62v-31c7.75 0 11.24-0.62 12.75-1.39 1.51-0.76 3.32-2.45 4.02-3.75 1.02-1.89 1.22-42.06 1-201.54l-0.27-199.19-6-6.17-350 0.15z"/>
		<path id="Path 1" class="s1" d="m152 465.5c0 10.18 0.34 18.48 0.75 18.46 0.41-0.01 4.35-2.23 8.75-4.93 4.4-2.69 9.69-5.6 11.75-6.46 2.06-0.86 4.76-1.29 6-0.95 1.24 0.34 5.85 2.76 10.25 5.37 4.4 2.62 9.01 5.26 10.25 5.88l2.25 1.13v-37h-50z"/>
		<path id="Path 2" class="s2" d="m154 206v186h272v-372h-272z"/>
		<path id="Path 3" class="s3" d="m92.34 20.93c-1.19 0.44-2.99 1.81-4 3.04-1.77 2.15-1.85 9.47-2.09 188.63-0.14 102.52-0.03 186.4 0.25 186.4 0.28 0 2.3-0.9 4.5-2 2.2-1.1 6.81-2.67 10.25-3.49 3.87-0.91 11.3-1.49 19.5-1.5l13.25-0.01v-372c-30.61 0.1-40.47 0.49-41.66 0.93z"/>
		<path id="Path 4" class="s4" d="m105.5 412.94c-1.65 0.4-4.35 1.44-6 2.31-1.65 0.87-4.41 3.08-6.14 4.91-1.72 1.84-3.94 4.91-4.93 6.84-1.14 2.24-1.81 5.83-1.85 10-0.05 5.43 0.43 7.38 2.93 11.85 1.64 2.94 4.45 6.43 6.24 7.75 1.79 1.32 5.16 3.08 7.5 3.92 2.94 1.05 8.02 1.51 16.5 1.5l12.25-0.02c0.5-28.83 0.53-28.99 3.27-31.73l2.78-2.77c152.25-0.43 197.46-0.32 198.7-0.03 1.24 0.29 3.39 1.77 4.78 3.28 1.8 1.95 2.53 3.85 2.5 6.5-0.02 2.77-0.8 4.54-2.95 6.75l-2.93 3h-116.15v15h186v-50c-232.11 0.16-300.85 0.53-302.5 0.94z"/>
		<path id="Path 5" class="s0" d="m192.34 55.92c-1.19 0.45-2.99 1.82-4 3.05-1.72 2.1-1.84 5.01-1.84 45.72v43.47l6.5 5.84c160.06 0 193.77-0.35 195.25-1.02 1.24-0.56 3.04-2.36 4-4 1.59-2.71 1.75-6.78 1.75-44.98v-42l-5.84-6.5c-150.09-0.3-194.63-0.02-195.82 0.42zm42.03 124.2c-1.73 0.51-3.83 1.93-4.67 3.16-0.85 1.22-1.63 3.12-1.73 4.22-0.11 1.1-0.15 3.01-0.09 4.25 0.07 1.24 1.24 3.37 2.62 4.75l2.5 2.5h155c4.98-4.37 5.5-5.67 5.5-9.31 0-3.1-0.62-5.15-2-6.63-1.1-1.19-3.58-2.58-5.5-3.1-2.06-0.56-33.3-0.91-76-0.86-41.92 0.04-73.82 0.48-75.63 1.02zm-45.37 2.8c-2 2.06-2.87 3.99-2.92 6.5-0.06 2.71 0.65 4.31 2.92 6.58 2.26 2.26 3.92 3 6.75 3.01 2.06 0 4.65-0.6 5.75-1.35 1.1-0.74 2.61-2.66 3.35-4.26 0.74-1.59 1.08-4.14 0.75-5.65-0.33-1.51-1.73-3.88-3.1-5.25-1.85-1.85-3.56-2.5-6.58-2.5-3.19 0-4.69 0.64-6.92 2.92zm182.5 245.19c-1.1 0.63-2.78 2.1-3.73 3.27-0.95 1.17-1.74 3.81-1.75 5.87-0.01 2.85 0.7 4.47 2.98 6.75 2.19 2.19 3.94 3 6.5 3 2.46 0 4.47-0.87 6.75-2.92 2.65-2.38 3.25-3.66 3.25-6.98 0-2.98-0.66-4.72-2.5-6.58-1.38-1.4-4.08-2.76-6-3.05-1.93-0.28-4.4 0.01-5.5 0.64z"/>
		<path id="Path 6" class="s5" d="m206 104.5v29.5h168v-59h-168z"/>
	</g>
</svg>