<svg version="1.2" xmlns="http://www.w3.org/2000/svg" viewBox="0 0 512 512" width="512" height="512">
	<style>
		.s0 { fill: #000000 }
		.s1 { fill: #ff5d5d  }
		.s2 { fill: #d8d8e4 }
		.s3 { fill: #6f6db0 }
		.s4 { fill: #ffffff } 
		.s5 { fill: #fdd828 }
	</style>
	<g id="Background">
		<path id="Path 0" class="s0" d="m27.5 2.97c-3.3 1.6-7.94 4.85-10.32 7.22-2.37 2.37-5.52 6.79-7 9.81l-2.68 5.5v461c4.16 8.52 7.31 12.94 9.68 15.31 2.38 2.37 7.02 5.62 10.32 7.22l6 2.91h351c9.3-4.46 13.95-7.71 16.33-10.1 2.38-2.39 5.53-6.82 7-9.84l2.67-5.5 1-202c68.08-117.8 89.12-154.81 90.67-158.25 2.3-5.08 2.83-7.66 2.83-13.75 0-6.34-0.51-8.62-3.28-14.75-1.93-4.26-5.13-9.12-7.75-11.79-2.46-2.5-7.17-5.88-10.47-7.5-5.49-2.71-6.89-2.96-16.5-2.96-9.61 0-11.01 0.25-16.5 2.96-3.3 1.62-7.81 4.77-10.03 7-2.21 2.22-7.79 10.57-12.39 18.54-4.6 7.97-10.22 17.64-12.47 21.48l-4.11 6.98-1-106.96c-4.14-8.53-7.29-12.95-9.67-15.34-2.38-2.39-7.03-5.64-10.33-7.22l-6-2.88-351-0.01z"/>
		<path id="Path 1" class="s1" d="m458.5 96.87c-1.65 1.03-3.94 2.94-5.08 4.25-1.15 1.31-3.07 4.18-4.29 6.38-1.21 2.2-2.07 4.08-1.91 4.18 0.15 0.11 6.92 4.04 15.03 8.75 8.11 4.72 15.09 8.58 15.5 8.59 0.41 0 2.21-2.81 4-6.25 1.98-3.81 3.25-7.74 3.25-10.02 0-2.06-0.48-4.99-1.06-6.5-0.59-1.51-2.28-4.03-3.75-5.59-1.48-1.56-3.93-3.47-5.44-4.25-1.51-0.78-5.11-1.41-8-1.41-3.38 0.01-6.32 0.67-8.25 1.87z"/>
		<path id="Path 2" class="s2" d="m303.67 371.15c-0.3 0.74-1.36 7.98-2.36 16.09-0.99 8.11-1.47 14.75-1.06 14.75 0.41 0.01 6.04-4.09 12.5-9.11 6.46-5.01 12.2-9.47 12.75-9.9 0.57-0.44-3.09-3.15-8.5-6.29-5.23-3.03-10.24-5.83-11.14-6.21-0.98-0.41-1.86-0.15-2.19 0.67z"/>
		<path id="Path 3" class="s3" d="m373.81 237.78c-34.48 59.8-62.96 109.4-63.3 110.22-0.45 1.12 3.29 3.75 14.69 10.31 8.42 4.84 15.59 8.44 15.95 8 0.35-0.45 28.81-49.63 63.24-109.31 34.43-59.68 62.68-108.95 62.77-109.5 0.09-0.55-6.54-4.92-14.75-9.71-8.2-4.79-15.14-8.71-15.41-8.71-0.27-0.01-28.71 48.91-63.19 108.7z"/>
		<path id="Path 4" class="s4" d="m34.25 22c-1.79 1.1-4.15 3.46-5.25 5.25-1.98 3.22-1.99 5.17-2.02 228.75l-0.04 225.5c3.57 5.43 6.17 7.79 8.08 8.75 3.27 1.64 13.65 1.75 173.98 1.75 160.33 0 170.71-0.11 173.98-1.75 1.91-0.96 4.51-3.32 5.78-5.25l2.3-3.5c-0.14-152.52-0.29-159.81-1.7-158-0.86 1.1-9.56 15.95-19.35 33l-17.81 31c-46.27 35.78-60.71 46.69-61.95 47.33-1.24 0.64-3.15 1.17-4.25 1.17-1.1 0-3.24-0.61-4.75-1.36-1.51-0.75-3.35-2.67-4.08-4.25-1.18-2.54-0.71-7.64 3.84-41.89l5.17-39c7.61-12.79 9.82-16.73 9.82-17 0-0.27-31.27-0.5-69.5-0.5h-69.5c-5.94-5.94-7-7.9-7-10 0-1.91 1.06-4.19 2.92-6.25l2.92-3.25 152.39-1 82.68-143c0.08-136.24 0.03-138.08-1.91-141.25-1.1-1.79-3.46-4.15-5.25-5.25-3.21-1.97-5.11-1.99-174.75-1.99-169.64 0-171.54 0.02-174.75 1.99z"/>
		<path id="Path 5" class="s0" d="m89.78 46.9c-2.69 2.39-3.26 3.62-3.27 7.08-0.01 3.46 0.55 4.69 3.24 7.1 2.67 2.4 4.13 2.92 8.25 2.92h5c0 45.5 0.4 57.81 1 59 0.55 1.1 2.35 2.67 4 3.5 1.65 0.82 4.12 1.5 5.5 1.5 1.37 0 3.96-1.31 5.75-2.92l3.25-2.91 0.5-58.17c6.2 0 9.35-0.67 11-1.5 1.65-0.82 3.45-2.4 4-3.5 0.55-1.1 1-3.35 1-5 0-1.65-0.45-3.9-1-5-0.55-1.1-2.35-2.67-4-3.5-2.35-1.18-7.11-1.5-21.98-1.5h-18.99zm72.23-0.16c-3.5 1.76-6.49 4.21-8.24 6.76-1.51 2.2-3.21 6.48-3.77 9.5-0.56 3.03-1.01 13.38-1.01 23 0 9.63 0.45 19.98 1.01 23 0.56 3.03 2.26 7.3 3.77 9.5 1.75 2.55 4.74 5.01 8.24 6.77 4.95 2.49 6.53 2.76 15.75 2.75 7.08-0.01 11.17-0.48 13.25-1.52 1.65-0.82 3.45-2.4 4-3.5 0.55-1.1 1-3.35 1-5 0-1.65-0.45-3.9-1-5-0.55-1.1-2.35-2.67-4-3.5q-3-1.5-12-1.5c-7.11 0-9.11-0.31-9.5-1.5-0.28-0.82-0.5-3.52-0.5-6v-4.5c17.6-0.48 18.32-0.67 20.58-3.25 1.69-1.92 2.42-3.95 2.42-6.75 0-2.8-0.73-4.82-2.42-6.75-2.26-2.57-2.98-2.76-11.5-3l-9.08-0.25c0-6.97 0.22-9.67 0.5-10.5 0.39-1.18 2.39-1.5 9.5-1.5q9 0 12-1.5c1.65-0.82 3.45-2.4 4-3.5 0.55-1.1 1-3.35 1-5 0-1.65-0.45-3.9-1-5-0.55-1.1-2.35-2.67-4-3.5-2.08-1.03-6.17-1.5-13.25-1.51-9.22-0.02-10.8 0.26-15.75 2.75zm68.8-1.8c-1.48 0.42-3.95 1.44-5.5 2.27-1.54 0.84-4.5 3.49-6.57 5.9-2.07 2.42-4.44 6.42-5.26 8.89-0.82 2.48-1.5 6.08-1.5 8 0 1.93 0.68 5.53 1.51 8 0.83 2.48 2.98 6.25 4.77 8.4 1.78 2.14 5.05 4.95 7.25 6.25 2.36 1.39 6.45 2.62 10 2.99 3.33 0.35 6.79 1.35 7.78 2.24 0.98 0.89 1.78 2.75 1.78 4.12 0 1.38-0.8 3.28-1.78 4.23-1.47 1.42-3.77 1.73-13.13 1.75l-11.35 0.02c-5.74 5.9-6.8 7.94-6.8 10 0 2.1 1.05 4.06 3.5 6.5l3.5 3.5c25.4-0.51 28.11-0.87 31.5-2.64 2.2-1.15 5.8-4.1 8-6.55 2.2-2.46 4.55-6.23 5.23-8.39 0.68-2.15 1.23-5.94 1.23-8.42 0-2.47-0.55-6.26-1.23-8.42-0.68-2.15-3.03-5.93-5.23-8.38-2.2-2.46-5.69-5.31-7.75-6.33-2.07-1.03-6.57-2.27-10-2.77-4.24-0.6-6.66-1.49-7.52-2.75-0.7-1.01-1.26-2.64-1.25-3.6 0.01-0.96 0.92-2.65 2.02-3.75 1.68-1.68 3.32-2 10.25-1.99 6.29 0.01 8.83-0.41 10.69-1.75 1.34-0.97 3.03-3.22 3.75-5.01 1.08-2.68 1.08-3.82 0-6.5-0.72-1.79-2.41-4.04-3.75-5.01-1.95-1.4-4.37-1.73-11.94-1.66-5.23 0.05-10.72 0.44-12.2 0.86zm52.95 0.6c-1.52 0.81-3.2 2.36-3.75 3.46-0.55 1.1-1 3.35-1 5 0 1.65 0.45 3.9 1 5 0.55 1.1 2.35 2.68 4 3.5 1.65 0.83 4.8 1.5 7 1.5h4l0.5 58.17c5.03 4.52 7.62 5.83 9 5.83 1.37 0 3.85-0.67 5.5-1.5 1.65-0.82 3.45-2.4 4-3.5 0.59-1.19 1-13.5 1-30.5v-28.5c9.11 0 10.57-0.51 13.25-2.92 2.68-2.4 3.25-3.64 3.25-7.08 0-3.43-0.57-4.67-3.25-7.08l-3.25-2.92c-34.15 0.07-39.13 0.41-41.25 1.54zm-209.05 124.41c-1.49 1.13-3.15 3.74-3.7 5.8-0.54 2.06-0.99 12.08-0.99 22.25 0 10.18 0.45 20.19 0.99 22.25 0.56 2.11 2.2 4.66 3.75 5.82 2.63 1.97 3.79 2.05 26.59 1.75l23.83-0.32c4.82-5.49 4.83-5.56 4.83-29.5 0-23.94-0.01-24-2.41-26.75l-2.42-2.75c-46.66-0.58-47.9-0.5-50.47 1.45zm78.8 41.45q-3.3 3.4-3.4 6.5c-0.08 2.29 0.81 4.02 3.4 6.6l3.5 3.5h140c5.73-5.06 6.22-6.22 6.22-10 0-3.78-0.49-4.94-3.11-7.25l-3.11-2.75h-140.2zm175.85-2.41c-1.18 0.48-2.87 1.91-3.76 3.19-0.88 1.28-1.6 4.01-1.6 6.07 0 2.47 0.78 4.62 2.26 6.29 1.23 1.39 3.82 2.82 5.75 3.17 2.42 0.44 4.34 0.12 6.25-1.04 1.51-0.92 3.38-3.13 4.16-4.92 0.83-1.93 1.14-4.42 0.75-6.15-0.37-1.6-1.9-3.96-3.41-5.25-1.52-1.29-3.99-2.32-5.5-2.28-1.52 0.03-3.72 0.45-4.9 0.92zm-254.65 64.96c-1.49 1.13-3.15 3.74-3.7 5.8-0.54 2.06-0.99 12.08-0.99 22.25 0 10.18 0.45 20.19 0.99 22.25 0.56 2.11 2.2 4.66 3.75 5.82 2.63 1.97 3.79 2.05 26.59 1.75l23.83-0.32c4.82-5.49 4.83-5.56 4.83-29.5 0-23.94-0.01-24-2.41-26.75l-2.42-2.75c-46.66-0.58-47.9-0.5-50.47 1.45zm0 104c-1.49 1.13-3.15 3.74-3.7 5.8-0.54 2.06-0.99 12.08-0.99 22.25 0 10.18 0.45 20.19 0.99 22.25 0.56 2.11 2.2 4.66 3.75 5.82 2.63 1.97 3.79 2.05 26.59 1.75l23.83-0.32c4.82-5.49 4.83-5.56 4.83-29.5 0-23.94-0.01-24-2.41-26.75l-2.42-2.75c-46.66-0.58-47.9-0.5-50.47 1.45zm78.8 41.45q-3.3 3.4-3.4 6.5c-0.08 2.29 0.81 4.02 3.4 6.6l3.5 3.5c79.83 0 91.64-0.3 93.62-1.25 1.44-0.69 3.24-2.49 4-4 0.76-1.51 1.38-3.65 1.38-4.75 0-1.1-0.62-3.24-1.38-4.75-0.76-1.51-2.56-3.31-4-4-1.98-0.94-13.81-1.25-48.22-1.25h-45.6z"/>
		<path id="Path 6" class="s5" d="m90 198v10h20v-20h-20zm0 104v10h20v-20h-20zm0 104v10h20v-20h-20z"/>
	</g>
</svg>